<svg width="20" height="20" viewBox="0 0 20 20" fill="none" xmlns="http://www.w3.org/2000/svg">
<g clip-path="url(#clip0_65_613)">
<path d="M4.395 8.75C5.26029 8.75 6.10615 9.00659 6.82562 9.48732C7.54508 9.96805 8.10584 10.6513 8.43697 11.4508C8.76811 12.2502 8.85475 13.1299 8.68594 13.9785C8.51713 14.8272 8.10045 15.6067 7.48859 16.2186C6.87674 16.8304 6.09719 17.2471 5.24852 17.4159C4.39985 17.5847 3.52019 17.4981 2.72076 17.167C1.92133 16.8358 1.23805 16.2751 0.75732 15.5556C0.276589 14.8362 0.02 13.9903 0.02 13.125L0 12.5C0 10.1794 0.921872 7.95376 2.56282 6.31282C4.20376 4.67187 6.42936 3.75 8.75 3.75V6.25C7.92888 6.24779 7.11546 6.40839 6.35679 6.7225C5.59812 7.03661 4.90925 7.498 4.33 8.08C4.10483 8.30467 3.89715 8.54621 3.70875 8.8025C3.93292 8.76667 4.16125 8.74875 4.39375 8.74875L4.395 8.75ZM15.645 8.75C16.5103 8.75 17.3562 9.00659 18.0756 9.48732C18.7951 9.96805 19.3558 10.6513 19.687 11.4508C20.0181 12.2502 20.1047 13.1299 19.9359 13.9785C19.7671 14.8272 19.3504 15.6067 18.7386 16.2186C18.1267 16.8304 17.3472 17.2471 16.4985 17.4159C15.6499 17.5847 14.7702 17.4981 13.9708 17.167C13.1713 16.8358 12.4881 16.2751 12.0073 15.5556C11.5266 14.8362 11.27 13.9903 11.27 13.125L11.25 12.5C11.25 10.1794 12.1719 7.95376 13.8128 6.31282C15.4538 4.67187 17.6794 3.75 20 3.75V6.25C19.1789 6.24779 18.3655 6.40839 17.6068 6.7225C16.8481 7.03661 16.1592 7.498 15.58 8.08C15.3548 8.30467 15.1471 8.54621 14.9587 8.8025C15.1829 8.76667 15.4117 8.75 15.645 8.75Z" fill="#EB996E"/>
</g>
<defs>
<clipPath id="clip0_65_613">
<rect width="20" height="20" fill="white"/>
</clipPath>
</defs>
</svg>
