<svg width="20" height="15" viewBox="0 0 20 15" fill="none" xmlns="http://www.w3.org/2000/svg">
<path d="M15.625 9.5C14.7597 9.5 13.9138 9.24341 13.1944 8.76268C12.4749 8.28195 11.9142 7.59867 11.583 6.79924C11.2519 5.99982 11.1653 5.12015 11.3341 4.27148C11.5029 3.42282 11.9196 2.64326 12.5314 2.03141C13.1433 1.41956 13.9228 1.00288 14.7715 0.834066C15.6201 0.665256 16.4998 0.751896 17.2992 1.08303C18.0987 1.41416 18.782 1.97492 19.2627 2.69438C19.7434 3.41385 20 4.25971 20 5.125L20.02 5.75C20.02 6.89907 19.7937 8.03688 19.3539 9.09848C18.9142 10.1601 18.2697 11.1247 17.4572 11.9372C16.6447 12.7497 15.6801 13.3942 14.6185 13.8339C13.5569 14.2737 12.4191 14.5 11.27 14.5V12C12.0911 12.0022 12.9045 11.8416 13.6632 11.5275C14.4219 11.2134 15.1108 10.752 15.69 10.17C15.9152 9.94533 16.1229 9.70379 16.3113 9.4475C16.0842 9.48291 15.8548 9.50088 15.625 9.50125V9.5ZM4.375 9.5C3.50971 9.5 2.66385 9.24341 1.94438 8.76268C1.22492 8.28195 0.664162 7.59867 0.333029 6.79924C0.00189565 5.99982 -0.084744 5.12015 0.0840664 4.27148C0.252877 3.42282 0.669555 2.64326 1.28141 2.03141C1.89326 1.41956 2.67282 1.00288 3.52148 0.834066C4.37015 0.665256 5.24982 0.751896 6.04924 1.08303C6.84867 1.41416 7.53195 1.97492 8.01268 2.69438C8.49341 3.41385 8.75 4.25971 8.75 5.125L8.77 5.75C8.77 8.07065 7.84813 10.2962 6.20719 11.9372C4.56624 13.5781 2.34065 14.5 0.020002 14.5V12C0.841125 12.0022 1.65454 11.8416 2.41321 11.5275C3.17188 11.2134 3.86076 10.752 4.44 10.17C4.66517 9.94533 4.87286 9.70379 5.06125 9.4475C4.83421 9.48291 4.60479 9.50088 4.375 9.50125V9.5Z" fill="#EB996E"/>
</svg>
