<svg width="24" height="24" viewBox="0 0 24 24" fill="none" xmlns="http://www.w3.org/2000/svg">
<path d="M15.2891 14.6769C15.1423 14.6289 14.2146 14.2108 14.7943 12.4486H14.786C16.2971 10.8923 17.4519 8.38798 17.4519 5.92244C17.4519 2.13137 14.9309 0.143982 12.0011 0.143982C9.06941 0.143982 6.56233 2.13044 6.56233 5.92244C6.56233 8.39813 7.71064 10.9126 9.23095 12.4652C9.82356 14.0197 8.76387 14.5966 8.54233 14.6778C5.47402 15.7874 1.87402 17.8098 1.87402 19.8064V20.5551C1.87402 23.2754 7.14849 23.8938 12.0297 23.8938C16.9183 23.8938 22.1263 23.2754 22.1263 20.5551V19.8064C22.1263 17.7498 18.5088 15.7431 15.2891 14.6769Z" fill="white"/>
</svg>
